<?xml version="1.0" encoding="utf-8"?>
<!-- Generator: Adobe Illustrator 26.0.3, SVG Export Plug-In . SVG Version: 6.00 Build 0)  -->
<svg version="1.1" id="Layer_1" xmlns="http://www.w3.org/2000/svg" xmlns:xlink="http://www.w3.org/1999/xlink" x="0px" y="0px"
	 viewBox="0 0 206.1 132.5" style="enable-background:new 0 0 206.1 132.5;" xml:space="preserve">
<style type="text/css">
	.st0{fill:#FFFFFF;}
	.st1{fill:url(#SVGID_1_);}
</style>
<g>
	<g>
		<path class="st0" d="M49.4,98.4h-7.3V68.8h17.4c1.3,0,2.5,0.2,3.6,0.6c1.1,0.4,2,1,2.8,1.8c0.8,0.8,1.4,1.8,1.8,3.1
			c0.4,1.2,0.6,2.7,0.6,4.4S68,81.8,67.6,83c-0.4,1.2-1,2.2-1.8,3.1c-0.8,0.8-1.7,1.4-2.8,1.8c-1.1,0.4-2.3,0.6-3.6,0.6H49.4V98.4z
			 M49.4,82.2h7.3c2.4,0,3.6-1.2,3.6-3.5c0-2.3-1.2-3.5-3.6-3.5h-7.3V82.2z"/>
		<path class="st0" d="M71,77.3h12c0.8,0,1.7,0.1,2.6,0.4c0.9,0.2,1.7,0.7,2.5,1.3c0.7,0.6,1.4,1.4,1.8,2.4c0.5,1,0.7,2.2,0.7,3.7
			v13.4H76.2c-2.2,0-3.9-0.6-5-1.8c-1.1-1.2-1.7-2.7-1.7-4.7c0-2,0.6-3.5,1.7-4.7c1.1-1.2,2.8-1.8,5-1.8h8.1c0-0.4,0-0.8-0.1-1.1
			c-0.1-0.4-0.2-0.7-0.5-1s-0.5-0.6-0.9-0.7c-0.4-0.2-0.9-0.3-1.5-0.3H71V77.3z M84.3,90.2h-6.4c-0.5,0-1,0.1-1.4,0.3
			c-0.4,0.2-0.6,0.6-0.6,1.3c0,0.7,0.2,1.1,0.6,1.3s0.9,0.3,1.4,0.3h6.4V90.2z"/>
		<path class="st0" d="M103.7,83.2c-0.4-0.4-0.9-0.6-1.6-0.6h-1.7v15.8h-6.3V77.3h10.1c0.8,0,1.6,0.2,2.4,0.5
			c0.8,0.3,1.5,0.7,2.1,1.3c0.6,0.6,1.1,1.3,1.5,2.1c0.4,0.8,0.6,1.7,0.6,2.7v2.1h-6.3v-1.2C104.4,84.1,104.2,83.6,103.7,83.2z"/>
		<path class="st0" d="M113.6,75.1v-5.1h6.3v5.1H113.6z M113.6,98.4V77.3h6.3v21.1H113.6z"/>
		<path class="st0" d="M127.1,89.7c-0.8-0.3-1.5-0.8-2.1-1.3c-0.6-0.6-1-1.2-1.3-2c-0.3-0.8-0.4-1.6-0.4-2.6c0-0.9,0.1-1.8,0.4-2.6
			c0.3-0.8,0.7-1.5,1.3-2.1c0.6-0.6,1.3-1,2.1-1.3c0.8-0.3,1.8-0.5,2.8-0.5h13.3v5h-12c-0.6,0-1.1,0.1-1.5,0.3
			c-0.4,0.2-0.6,0.6-0.6,1.3c0,0.7,0.2,1.1,0.6,1.3c0.4,0.2,0.9,0.3,1.5,0.3h6.5c1.1,0,2,0.2,2.8,0.5c0.8,0.3,1.5,0.8,2.1,1.4
			c0.6,0.6,1,1.3,1.3,2.1c0.3,0.8,0.4,1.6,0.4,2.6c0,0.9-0.1,1.8-0.4,2.6c-0.3,0.8-0.7,1.5-1.3,2.1s-1.3,1-2.1,1.3
			c-0.8,0.3-1.8,0.5-2.8,0.5h-14.5v-5h13.2c0.6,0,1.1-0.1,1.5-0.3c0.4-0.2,0.6-0.6,0.6-1.3s-0.2-1.1-0.6-1.3
			c-0.4-0.2-0.9-0.3-1.5-0.3H130C128.9,90.2,128,90,127.1,89.7z"/>
	</g>
	<g>
		<path class="st0" d="M66.2,111c-0.1-0.3-0.2-0.5-0.4-0.7c-0.2-0.2-0.4-0.4-0.7-0.5c-0.3-0.1-0.6-0.2-1.1-0.2h-3.4v15.8h-6.3v-15.8
			h-5.6v15.8h-6.3v-21.1h23.5c0.8,0,1.5,0.1,2.3,0.4c0.8,0.3,1.5,0.7,2.2,1.2c0.6,0.5,1.2,1.2,1.6,2s0.6,1.7,0.6,2.8v14.7h-6.3
			v-13.6C66.3,111.5,66.3,111.3,66.2,111z"/>
		<path class="st0" d="M76.6,104.3h12c0.8,0,1.7,0.1,2.6,0.4c0.9,0.2,1.7,0.7,2.5,1.3c0.7,0.6,1.4,1.4,1.8,2.4
			c0.5,1,0.7,2.2,0.7,3.7v13.4H81.8c-2.2,0-3.9-0.6-5-1.8c-1.1-1.2-1.7-2.7-1.7-4.7c0-2,0.6-3.5,1.7-4.7c1.1-1.2,2.8-1.8,5-1.8h8.1
			c0-0.4,0-0.8-0.1-1.1c-0.1-0.4-0.2-0.7-0.5-1s-0.5-0.6-0.9-0.7c-0.4-0.2-0.9-0.3-1.5-0.3H76.6V104.3z M89.9,117.2h-6.4
			c-0.5,0-1,0.1-1.4,0.3c-0.4,0.2-0.6,0.6-0.6,1.3c0,0.7,0.2,1.1,0.6,1.3s0.9,0.3,1.4,0.3h6.4V117.2z"/>
		<path class="st0" d="M109.3,110.2c-0.4-0.4-0.9-0.6-1.6-0.6H106v15.8h-6.3v-21.1h10.1c0.8,0,1.6,0.2,2.4,0.5
			c0.8,0.3,1.5,0.7,2.1,1.3c0.6,0.6,1.1,1.3,1.5,2.1c0.4,0.8,0.6,1.7,0.6,2.7v2.1h-6.3v-1.2C109.9,111.1,109.7,110.6,109.3,110.2z"
			/>
		<path class="st0" d="M125.5,125.4h-6.3v-21.6h6.3v7.7h0.2l6.3-7.3h7.6l-9,10l10,11.1h-8l-6.9-8.4h-0.2V125.4z"/>
		<path class="st0" d="M158.2,120.4v5h-8.7c-3.2,0-5.7-0.9-7.5-2.7c-1.8-1.8-2.7-4.4-2.7-7.9c0-3.5,0.9-6.1,2.7-7.9
			c1.8-1.8,4.3-2.7,7.5-2.7h8.7v5h-7.8c-1.2,0-2.1,0.3-2.7,0.9c-0.7,0.6-1.2,1.3-1.6,2.3h11.7v4.8h-11.7c0.4,1,0.9,1.8,1.6,2.4
			c0.7,0.6,1.6,0.9,2.7,0.9H158.2z"/>
		<path class="st0" d="M170.2,125.4c-0.8,0-1.6-0.1-2.3-0.2s-1.4-0.4-2-0.8c-0.6-0.4-1.1-1.1-1.4-1.9c-0.4-0.8-0.5-2-0.5-3.4v-9.8
			h-3.8v-5h3.8v-8.4h6.3v8.4h5.9v5h-5.9v8.2c0,0.4,0,0.7,0.1,1.1c0,0.4,0.2,0.7,0.3,1c0.2,0.3,0.5,0.5,0.9,0.7
			c0.4,0.2,1,0.2,1.7,0.2h2.9v5H170.2z"/>
		<path class="st0" d="M182.4,116.7c-0.8-0.3-1.5-0.8-2.1-1.3c-0.6-0.6-1-1.2-1.3-2c-0.3-0.8-0.4-1.6-0.4-2.6c0-0.9,0.1-1.8,0.4-2.6
			c0.3-0.8,0.7-1.5,1.3-2.1c0.6-0.6,1.3-1,2.1-1.3c0.8-0.3,1.8-0.5,2.8-0.5h13.3v5h-12c-0.6,0-1.1,0.1-1.5,0.3
			c-0.4,0.2-0.6,0.6-0.6,1.3c0,0.7,0.2,1.1,0.6,1.3c0.4,0.2,0.9,0.3,1.5,0.3h6.5c1.1,0,2,0.2,2.8,0.5c0.8,0.3,1.5,0.8,2.1,1.4
			c0.6,0.6,1,1.3,1.3,2.1c0.3,0.8,0.4,1.6,0.4,2.6c0,0.9-0.1,1.8-0.4,2.6c-0.3,0.8-0.7,1.5-1.3,2.1s-1.3,1-2.1,1.3
			c-0.8,0.3-1.8,0.5-2.8,0.5h-14.5v-5h13.2c0.6,0,1.1-0.1,1.5-0.3c0.4-0.2,0.6-0.6,0.6-1.3s-0.2-1.1-0.6-1.3
			c-0.4-0.2-0.9-0.3-1.5-0.3h-6.6C184.2,117.2,183.2,117,182.4,116.7z"/>
	</g>
</g>
<g>
	<g>
		<linearGradient id="SVGID_1_" gradientUnits="userSpaceOnUse" x1="9.9732" y1="64.0485" x2="65.8088" y2="64.0485">
			<stop  offset="0" style="stop-color:#1D45FE"/>
			<stop  offset="0.4274" style="stop-color:#129EFC"/>
			<stop  offset="1" style="stop-color:#05F2F2"/>
		</linearGradient>
		<path class="st1" d="M42.7,36c-0.3,0.2-0.7,0.5-1,0.7c-0.9,0.7-1.9,0.9-3.1,0.7c-0.2,0-0.2,0-0.2,0.1c0,1.5,0,2.9,0,4.4h0v0.4h0
			v17.9h4.3v-7.1h0V42h0C42.7,40,42.7,38,42.7,36z M23.7,33.5C23.7,33.6,23.6,33.6,23.7,33.5c-1.4,1.5-2.8,3-4.1,4.4
			c-0.1,0.1-0.1,0.2-0.1,0.3c0,1.9,0,3.9,0,5.8h0v43.5h0v35.2h4.3V86.9h0v-38c0,0,0,0,0-0.1c0-5.1,0-10.1,0-15.2
			C23.7,33.6,23.8,33.6,23.7,33.5z M14.1,40.7c-1.2,0.3-2.3,0-3.2-1c-0.3-0.3-0.6-0.6-0.9-0.9c-0.1,0,0,0.1,0,0.1c0,1.6,0,3.3,0,4.9
			h0v43.2v0.6v35.2h4.3V87.6v-0.6V43.8h0c0-1,0-2,0-3C14.2,40.7,14.2,40.6,14.1,40.7z M33.2,35.7c-0.2-0.2-0.4-0.4-0.6-0.6
			c-1.2-1.3-2.3-2.6-3.5-3.9c0,0-0.1-0.1-0.1-0.1c0,0.1,0,0.1,0,0.2c0,3.6,0,7.2,0,10.9h0v44.8v0.6v35.2h4.3V87.6v-0.6V42.2h0
			C33.2,40,33.2,37.9,33.2,35.7z M52.3,8.9C52.4,9,52.5,9,52.6,9.1c1,0.9,2,1.7,2.9,2.6c0.1,0.1,0.2,0.2,0,0.3
			c-5.2,5-10.5,10-15.7,15c-0.2,0.1-0.2,0.1-0.4,0c-3-2.8-5.9-5.7-8.9-8.5c-0.2-0.2-0.3-0.3-0.5-0.4c-1-0.6-2.2-0.5-3.1,0.4
			c-3.1,3-6.2,6-9.4,9.1c-1.8,1.7-3.6,3.5-5.4,5.2c-1.2,1.1-0.8,2.9,0.7,3.5c0.9,0.4,1.9,0.1,2.7-0.6c4.3-4.2,8.6-8.3,12.9-12.5
			c0.2-0.2,0.2-0.2,0.4,0c3,2.8,5.9,5.7,8.9,8.5c0.3,0.3,0.6,0.5,0.9,0.6c1,0.4,1.9,0.1,2.7-0.6c5.8-5.5,11.6-11.1,17.4-16.6
			c0.2-0.2,0.3-0.2,0.5,0c0.6,0.5,1.2,1,1.8,1.6c0.4,0.4,0.9,0.8,1.4,1.2c1.1-4.2,2.2-8.3,3.4-12.5C61.3,6.5,56.8,7.7,52.3,8.9z
			 M52.2,28.5c0,0-0.1,0.1-0.1,0.1c-1.3,1.3-2.7,2.5-4,3.8c-0.1,0.1-0.1,0.2-0.1,0.3c0,2.2,0,4.3,0,6.5h0V53h0v7.2h4.3V42.4h0v-3.2
			h0C52.2,35.7,52.2,32.1,52.2,28.5C52.2,28.6,52.2,28.6,52.2,28.5z M61.7,24.6c0-0.1,0-0.2-0.1-0.2c-0.6-0.5-1.1-1.1-1.7-1.6
			c-0.1-0.1-0.1-0.1-0.2,0c-0.7,0.7-1.4,1.5-2.1,2.2c-0.1,0.1-0.1,0.2-0.1,0.3c0,4.2,0,8.4,0,12.6h0v4.5v10.8v7.1h4.3v-7.1V42.4
			v-4.5h0C61.7,33.4,61.7,29,61.7,24.6z"/>
	</g>
</g>
</svg>
